<mxfile host="app.diagrams.net" modified="2023-09-04T22:12:35.439Z" agent="Mozilla/5.0 (X11; Ubuntu; Linux x86_64; rv:109.0) Gecko/20100101 Firefox/117.0" etag="P4KYAnfxHuMvnTr1Gx_l" version="21.7.2" type="github">
  <diagram id="C5RBs43oDa-KdzZeNtuy" name="Page-1">
    <mxGraphModel dx="1311" dy="724" grid="1" gridSize="10" guides="1" tooltips="1" connect="1" arrows="1" fold="1" page="1" pageScale="1" pageWidth="827" pageHeight="1169" math="0" shadow="0">
      <root>
        <mxCell id="WIyWlLk6GJQsqaUBKTNV-0" />
        <mxCell id="WIyWlLk6GJQsqaUBKTNV-1" parent="WIyWlLk6GJQsqaUBKTNV-0" />
        <mxCell id="aPA_8iuVSg-MkY8_S61d-0" style="edgeStyle=orthogonalEdgeStyle;rounded=0;orthogonalLoop=1;jettySize=auto;html=1;exitX=0.534;exitY=1.004;exitDx=0;exitDy=0;entryX=0;entryY=0.5;entryDx=0;entryDy=0;exitPerimeter=0;" parent="WIyWlLk6GJQsqaUBKTNV-1" source="uvzgt-2RuKVB-h7tKYLs-3" target="uvzgt-2RuKVB-h7tKYLs-5" edge="1">
          <mxGeometry relative="1" as="geometry">
            <Array as="points">
              <mxPoint x="150" y="720" />
              <mxPoint x="230" y="720" />
              <mxPoint x="230" y="803" />
            </Array>
          </mxGeometry>
        </mxCell>
        <mxCell id="aPA_8iuVSg-MkY8_S61d-1" value="&lt;font style=&quot;font-size: 24px;&quot;&gt;1&lt;/font&gt;" style="edgeLabel;html=1;align=center;verticalAlign=middle;resizable=0;points=[];" parent="aPA_8iuVSg-MkY8_S61d-0" vertex="1" connectable="0">
          <mxGeometry x="-0.7909" y="-1" relative="1" as="geometry">
            <mxPoint y="24" as="offset" />
          </mxGeometry>
        </mxCell>
        <mxCell id="aPA_8iuVSg-MkY8_S61d-2" value="&lt;font style=&quot;font-size: 24px;&quot;&gt;4..5&lt;/font&gt;" style="edgeLabel;html=1;align=center;verticalAlign=middle;resizable=0;points=[];" parent="aPA_8iuVSg-MkY8_S61d-0" vertex="1" connectable="0">
          <mxGeometry x="0.7545" y="1" relative="1" as="geometry">
            <mxPoint y="-13" as="offset" />
          </mxGeometry>
        </mxCell>
        <mxCell id="uvzgt-2RuKVB-h7tKYLs-0" value="Jugador" style="swimlane;fontStyle=1;align=center;verticalAlign=top;childLayout=stackLayout;horizontal=1;startSize=26;horizontalStack=0;resizeParent=1;resizeParentMax=0;resizeLast=0;collapsible=1;marginBottom=0;whiteSpace=wrap;html=1;" parent="WIyWlLk6GJQsqaUBKTNV-1" vertex="1">
          <mxGeometry x="70" y="460" width="150" height="210" as="geometry" />
        </mxCell>
        <mxCell id="uvzgt-2RuKVB-h7tKYLs-1" value="&lt;div style=&quot;font-size: 17px;&quot;&gt;&lt;font style=&quot;font-size: 17px;&quot;&gt;+ Nombre: str&lt;br&gt;&lt;/font&gt;&lt;/div&gt;&lt;div style=&quot;font-size: 17px;&quot;&gt;&lt;font style=&quot;font-size: 17px;&quot;&gt;+ Estado: enum&lt;br&gt;&lt;/font&gt;&lt;/div&gt;&lt;div style=&quot;font-size: 17px;&quot;&gt;&lt;font style=&quot;font-size: 17px;&quot;&gt;+ Posición: int&lt;br&gt;&lt;/font&gt;&lt;/div&gt;&lt;div style=&quot;font-size: 17px;&quot;&gt;&lt;font style=&quot;font-size: 17px;&quot;&gt;+ LaCosa: bool&lt;br&gt;&lt;/font&gt;&lt;/div&gt;" style="text;strokeColor=none;fillColor=none;align=left;verticalAlign=top;spacingLeft=4;spacingRight=4;overflow=hidden;rotatable=0;points=[[0,0.5],[1,0.5]];portConstraint=eastwest;whiteSpace=wrap;html=1;" parent="uvzgt-2RuKVB-h7tKYLs-0" vertex="1">
          <mxGeometry y="26" width="150" height="84" as="geometry" />
        </mxCell>
        <mxCell id="uvzgt-2RuKVB-h7tKYLs-2" value="" style="line;strokeWidth=1;fillColor=none;align=left;verticalAlign=middle;spacingTop=-1;spacingLeft=3;spacingRight=3;rotatable=0;labelPosition=right;points=[];portConstraint=eastwest;strokeColor=inherit;" parent="uvzgt-2RuKVB-h7tKYLs-0" vertex="1">
          <mxGeometry y="110" width="150" height="8" as="geometry" />
        </mxCell>
        <mxCell id="uvzgt-2RuKVB-h7tKYLs-3" value="&lt;div align=&quot;left&quot;&gt;+ tirar_carta()&lt;/div&gt;&lt;div align=&quot;left&quot;&gt;+ levantar_carta()&lt;br&gt;&lt;/div&gt;&lt;div align=&quot;left&quot;&gt;+ intercambiar()&lt;br&gt;&lt;/div&gt;&lt;div align=&quot;left&quot;&gt;+ jugar_carta()&lt;/div&gt;&lt;div align=&quot;left&quot;&gt;+ enviar_mensaje ()&lt;/div&gt;" style="text;strokeColor=none;fillColor=none;align=left;verticalAlign=top;spacingLeft=4;spacingRight=4;overflow=hidden;rotatable=0;points=[[0,0.5],[1,0.5]];portConstraint=eastwest;whiteSpace=wrap;html=1;" parent="uvzgt-2RuKVB-h7tKYLs-0" vertex="1">
          <mxGeometry y="118" width="150" height="92" as="geometry" />
        </mxCell>
        <mxCell id="uvzgt-2RuKVB-h7tKYLs-4" value="Carta" style="swimlane;fontStyle=1;align=center;verticalAlign=top;childLayout=stackLayout;horizontal=1;startSize=26;horizontalStack=0;resizeParent=1;resizeParentMax=0;resizeLast=0;collapsible=1;marginBottom=0;whiteSpace=wrap;html=1;" parent="WIyWlLk6GJQsqaUBKTNV-1" vertex="1">
          <mxGeometry x="310" y="700" width="160" height="180" as="geometry" />
        </mxCell>
        <mxCell id="uvzgt-2RuKVB-h7tKYLs-5" value="&lt;div style=&quot;font-size: 17px;&quot;&gt;&lt;font style=&quot;font-size: 17px;&quot;&gt;+ Tipo: str&lt;/font&gt;&lt;/div&gt;&lt;div style=&quot;font-size: 17px;&quot;&gt;&lt;font style=&quot;font-size: 17px;&quot;&gt;+ Subtipo: str&lt;br&gt;&lt;/font&gt;&lt;/div&gt;&lt;div style=&quot;font-size: 17px;&quot;&gt;&lt;font style=&quot;font-size: 17px;&quot;&gt;+ Numero: int&lt;br&gt;&lt;/font&gt;&lt;/div&gt;&lt;div style=&quot;font-size: 17px;&quot;&gt;&lt;font style=&quot;font-size: 17px;&quot;&gt;+ Efecto: str&lt;br&gt;&lt;/font&gt;&lt;/div&gt;&lt;div style=&quot;font-size: 17px;&quot;&gt;&lt;font style=&quot;font-size: 17px;&quot;&gt;+ Descarte: bool&lt;/font&gt;&lt;/div&gt;&lt;div style=&quot;font-size: 17px;&quot;&gt;&lt;font style=&quot;font-size: 17px;&quot;&gt;+ Robo: bool&lt;br&gt;&lt;/font&gt;&lt;/div&gt;&lt;div style=&quot;font-size: 17px;&quot;&gt;&lt;font style=&quot;font-size: 17px;&quot;&gt;+ Dueño: str&lt;br&gt;&lt;/font&gt;&lt;/div&gt;" style="text;strokeColor=none;fillColor=none;align=left;verticalAlign=top;spacingLeft=4;spacingRight=4;overflow=hidden;rotatable=0;points=[[0,0.5],[1,0.5]];portConstraint=eastwest;whiteSpace=wrap;html=1;" parent="uvzgt-2RuKVB-h7tKYLs-4" vertex="1">
          <mxGeometry y="26" width="160" height="154" as="geometry" />
        </mxCell>
        <mxCell id="uvzgt-2RuKVB-h7tKYLs-24" value="Partida" style="swimlane;fontStyle=0;childLayout=stackLayout;horizontal=1;startSize=26;fillColor=none;horizontalStack=0;resizeParent=1;resizeParentMax=0;resizeLast=0;collapsible=1;marginBottom=0;whiteSpace=wrap;html=1;" parent="WIyWlLk6GJQsqaUBKTNV-1" vertex="1">
          <mxGeometry x="360" y="40" width="140" height="140" as="geometry" />
        </mxCell>
        <mxCell id="uvzgt-2RuKVB-h7tKYLs-25" value="&lt;div style=&quot;font-size: 13px;&quot;&gt;&lt;font style=&quot;font-size: 13px;&quot;&gt;+ Nombre: str&lt;/font&gt;&lt;/div&gt;&lt;div style=&quot;font-size: 13px;&quot;&gt;&lt;div style=&quot;font-size: 13px;&quot;&gt;&lt;font style=&quot;font-size: 13px;&quot;&gt;+ Creador: str&lt;/font&gt;&lt;/div&gt;&lt;div style=&quot;font-size: 13px;&quot;&gt;&lt;font style=&quot;font-size: 13px;&quot;&gt;+ Publica: bool&lt;/font&gt;&lt;/div&gt;&lt;div style=&quot;font-size: 13px;&quot;&gt;&lt;font style=&quot;font-size: 13px;&quot;&gt;+ Contraseña: str&lt;br&gt;&lt;/font&gt;&lt;/div&gt;&lt;div style=&quot;font-size: 13px;&quot;&gt;&lt;font style=&quot;font-size: 13px;&quot;&gt;+ MinJugadores: int&lt;/font&gt;&lt;/div&gt;&lt;div style=&quot;font-size: 13px;&quot;&gt;&lt;font style=&quot;font-size: 13px;&quot;&gt;+ MaxJugadores: int&lt;br&gt;&lt;/font&gt;&lt;/div&gt;&lt;div style=&quot;font-size: 13px;&quot;&gt;&lt;font style=&quot;font-size: 13px;&quot;&gt;+ Ganador: enum&lt;br&gt;&lt;/font&gt;&lt;/div&gt;&lt;/div&gt;" style="text;strokeColor=none;fillColor=none;align=left;verticalAlign=top;spacingLeft=4;spacingRight=4;overflow=hidden;rotatable=0;points=[[0,0.5],[1,0.5]];portConstraint=eastwest;whiteSpace=wrap;html=1;" parent="uvzgt-2RuKVB-h7tKYLs-24" vertex="1">
          <mxGeometry y="26" width="140" height="114" as="geometry" />
        </mxCell>
        <mxCell id="uvzgt-2RuKVB-h7tKYLs-29" style="edgeStyle=orthogonalEdgeStyle;rounded=0;orthogonalLoop=1;jettySize=auto;html=1;exitX=0.5;exitY=1;exitDx=0;exitDy=0;entryX=0.75;entryY=0;entryDx=0;entryDy=0;" parent="WIyWlLk6GJQsqaUBKTNV-1" source="YxHWImLxe_WKOJZ9vS2e-17" target="YxHWImLxe_WKOJZ9vS2e-37" edge="1">
          <mxGeometry relative="1" as="geometry">
            <mxPoint x="432.24" y="200" as="sourcePoint" />
            <Array as="points">
              <mxPoint x="430" y="237" />
              <mxPoint x="450" y="237" />
            </Array>
            <mxPoint x="449.99" y="447.1400000000001" as="targetPoint" />
          </mxGeometry>
        </mxCell>
        <mxCell id="aPA_8iuVSg-MkY8_S61d-3" value="&lt;font style=&quot;font-size: 18px;&quot;&gt;4..12&lt;/font&gt;" style="edgeLabel;html=1;align=center;verticalAlign=middle;resizable=0;points=[];" parent="uvzgt-2RuKVB-h7tKYLs-29" vertex="1" connectable="0">
          <mxGeometry x="0.6343" y="2" relative="1" as="geometry">
            <mxPoint x="-2" y="-10" as="offset" />
          </mxGeometry>
        </mxCell>
        <mxCell id="uvzgt-2RuKVB-h7tKYLs-39" value="Estado = {Humano, Infectado, Cosa, Muerto}" style="text;html=1;strokeColor=none;fillColor=none;align=center;verticalAlign=middle;whiteSpace=wrap;rounded=0;" parent="WIyWlLk6GJQsqaUBKTNV-1" vertex="1">
          <mxGeometry x="550" y="760" width="250" height="30" as="geometry" />
        </mxCell>
        <mxCell id="aPA_8iuVSg-MkY8_S61d-7" value="Mensaje" style="swimlane;fontStyle=0;childLayout=stackLayout;horizontal=1;startSize=26;fillColor=none;horizontalStack=0;resizeParent=1;resizeParentMax=0;resizeLast=0;collapsible=1;marginBottom=0;whiteSpace=wrap;html=1;" parent="WIyWlLk6GJQsqaUBKTNV-1" vertex="1">
          <mxGeometry x="40" y="250" width="140" height="78" as="geometry" />
        </mxCell>
        <mxCell id="aPA_8iuVSg-MkY8_S61d-8" value="+ Mensajero: str" style="text;strokeColor=none;fillColor=none;align=left;verticalAlign=top;spacingLeft=4;spacingRight=4;overflow=hidden;rotatable=0;points=[[0,0.5],[1,0.5]];portConstraint=eastwest;whiteSpace=wrap;html=1;" parent="aPA_8iuVSg-MkY8_S61d-7" vertex="1">
          <mxGeometry y="26" width="140" height="26" as="geometry" />
        </mxCell>
        <mxCell id="aPA_8iuVSg-MkY8_S61d-9" value="+ Contenido: str" style="text;strokeColor=none;fillColor=none;align=left;verticalAlign=top;spacingLeft=4;spacingRight=4;overflow=hidden;rotatable=0;points=[[0,0.5],[1,0.5]];portConstraint=eastwest;whiteSpace=wrap;html=1;" parent="aPA_8iuVSg-MkY8_S61d-7" vertex="1">
          <mxGeometry y="52" width="140" height="26" as="geometry" />
        </mxCell>
        <mxCell id="aPA_8iuVSg-MkY8_S61d-25" style="edgeStyle=orthogonalEdgeStyle;rounded=0;orthogonalLoop=1;jettySize=auto;html=1;exitX=1;exitY=0.5;exitDx=0;exitDy=0;entryX=0.5;entryY=0;entryDx=0;entryDy=0;" parent="WIyWlLk6GJQsqaUBKTNV-1" source="YxHWImLxe_WKOJZ9vS2e-18" target="aPA_8iuVSg-MkY8_S61d-7" edge="1">
          <mxGeometry relative="1" as="geometry">
            <mxPoint x="370" y="110" as="sourcePoint" />
            <mxPoint x="110.03999999999996" y="212" as="targetPoint" />
            <Array as="points">
              <mxPoint x="110" y="110" />
            </Array>
          </mxGeometry>
        </mxCell>
        <mxCell id="aPA_8iuVSg-MkY8_S61d-30" value="&lt;font style=&quot;font-size: 36px;&quot;&gt;*&lt;/font&gt;" style="edgeLabel;html=1;align=center;verticalAlign=middle;resizable=0;points=[];rotation=-90;" parent="aPA_8iuVSg-MkY8_S61d-25" vertex="1" connectable="0">
          <mxGeometry x="0.8423" y="-1" relative="1" as="geometry">
            <mxPoint x="16" y="-31" as="offset" />
          </mxGeometry>
        </mxCell>
        <mxCell id="aPA_8iuVSg-MkY8_S61d-26" style="edgeStyle=orthogonalEdgeStyle;rounded=0;orthogonalLoop=1;jettySize=auto;html=1;entryX=0.565;entryY=1.017;entryDx=0;entryDy=0;entryPerimeter=0;" parent="WIyWlLk6GJQsqaUBKTNV-1" source="YxHWImLxe_WKOJZ9vS2e-4" target="aPA_8iuVSg-MkY8_S61d-9" edge="1">
          <mxGeometry relative="1" as="geometry">
            <mxPoint x="170" y="426" as="sourcePoint" />
            <mxPoint x="120" y="340" as="targetPoint" />
          </mxGeometry>
        </mxCell>
        <mxCell id="aPA_8iuVSg-MkY8_S61d-31" style="edgeStyle=orthogonalEdgeStyle;rounded=0;orthogonalLoop=1;jettySize=auto;html=1;exitX=1;exitY=0.5;exitDx=0;exitDy=0;entryX=1;entryY=0;entryDx=0;entryDy=0;" parent="WIyWlLk6GJQsqaUBKTNV-1" source="uvzgt-2RuKVB-h7tKYLs-25" target="uvzgt-2RuKVB-h7tKYLs-4" edge="1">
          <mxGeometry relative="1" as="geometry">
            <Array as="points">
              <mxPoint x="500" y="79" />
              <mxPoint x="640" y="79" />
              <mxPoint x="640" y="670" />
              <mxPoint x="470" y="670" />
            </Array>
          </mxGeometry>
        </mxCell>
        <mxCell id="aPA_8iuVSg-MkY8_S61d-32" value="1" style="edgeLabel;html=1;align=center;verticalAlign=middle;resizable=0;points=[];" parent="aPA_8iuVSg-MkY8_S61d-31" vertex="1" connectable="0">
          <mxGeometry x="-0.9062" y="1" relative="1" as="geometry">
            <mxPoint as="offset" />
          </mxGeometry>
        </mxCell>
        <mxCell id="aPA_8iuVSg-MkY8_S61d-34" value="&lt;b&gt;Chat&lt;/b&gt;: No es necesaria una clase chat ya que ésta es una lista de mensajes" style="text;html=1;align=center;verticalAlign=middle;resizable=0;points=[];autosize=1;strokeColor=none;fillColor=none;" parent="WIyWlLk6GJQsqaUBKTNV-1" vertex="1">
          <mxGeometry x="70" y="970" width="420" height="30" as="geometry" />
        </mxCell>
        <mxCell id="aPA_8iuVSg-MkY8_S61d-35" value="&lt;div align=&quot;left&quot;&gt;&lt;b&gt;Mazo&lt;/b&gt;: Un mazo es una lista de cartas, con un unico atributo: cantidad. Es omitible. &lt;br&gt;&lt;/div&gt;&lt;div align=&quot;left&quot;&gt;Se puede implementar con los atributos Descarte, Robo y EnJuego. Si una carta&lt;/div&gt;&lt;div align=&quot;left&quot;&gt;está en la mano de un jugador, en el atributo dueño se pone el nombre del jugador.&lt;br&gt;&lt;/div&gt;" style="text;html=1;align=left;verticalAlign=middle;resizable=0;points=[];autosize=1;strokeColor=none;fillColor=none;" parent="WIyWlLk6GJQsqaUBKTNV-1" vertex="1">
          <mxGeometry x="80" y="910" width="460" height="60" as="geometry" />
        </mxCell>
        <mxCell id="YxHWImLxe_WKOJZ9vS2e-0" value="Ignacio Tomas Ramirez" style="text;html=1;strokeColor=none;fillColor=none;align=center;verticalAlign=middle;whiteSpace=wrap;rounded=0;" vertex="1" parent="WIyWlLk6GJQsqaUBKTNV-1">
          <mxGeometry width="160" height="30" as="geometry" />
        </mxCell>
        <mxCell id="YxHWImLxe_WKOJZ9vS2e-1" value="&lt;font style=&quot;font-size: 36px;&quot;&gt;*&lt;/font&gt;" style="edgeLabel;html=1;align=center;verticalAlign=middle;resizable=0;points=[];rotation=-45;" vertex="1" connectable="0" parent="WIyWlLk6GJQsqaUBKTNV-1">
          <mxGeometry x="145" y="360" as="geometry" />
        </mxCell>
        <mxCell id="YxHWImLxe_WKOJZ9vS2e-2" value="&lt;font style=&quot;font-size: 36px;&quot;&gt;*&lt;/font&gt;" style="edgeLabel;html=1;align=center;verticalAlign=middle;resizable=0;points=[];rotation=0;" vertex="1" connectable="0" parent="WIyWlLk6GJQsqaUBKTNV-1">
          <mxGeometry x="510" y="680" as="geometry" />
        </mxCell>
        <mxCell id="YxHWImLxe_WKOJZ9vS2e-18" value="" style="rhombus;whiteSpace=wrap;html=1;fillColor=#080808;" vertex="1" parent="WIyWlLk6GJQsqaUBKTNV-1">
          <mxGeometry x="340.00000000000006" y="100" width="20" height="20" as="geometry" />
        </mxCell>
        <mxCell id="YxHWImLxe_WKOJZ9vS2e-4" value="" style="rhombus;whiteSpace=wrap;html=1;fillColor=#080808;" vertex="1" parent="WIyWlLk6GJQsqaUBKTNV-1">
          <mxGeometry x="110" y="440" width="20" height="20" as="geometry" />
        </mxCell>
        <mxCell id="YxHWImLxe_WKOJZ9vS2e-17" value="" style="rhombus;whiteSpace=wrap;html=1;fillColor=none;" vertex="1" parent="WIyWlLk6GJQsqaUBKTNV-1">
          <mxGeometry x="420" y="180" width="20" height="20" as="geometry" />
        </mxCell>
        <mxCell id="YxHWImLxe_WKOJZ9vS2e-34" value="Ganador = {Humanos, Cosa}" style="text;html=1;strokeColor=none;fillColor=none;align=center;verticalAlign=middle;whiteSpace=wrap;rounded=0;" vertex="1" parent="WIyWlLk6GJQsqaUBKTNV-1">
          <mxGeometry x="550" y="790" width="170" height="30" as="geometry" />
        </mxCell>
        <mxCell id="YxHWImLxe_WKOJZ9vS2e-44" style="edgeStyle=orthogonalEdgeStyle;rounded=0;orthogonalLoop=1;jettySize=auto;html=1;entryX=1;entryY=0.5;entryDx=0;entryDy=0;strokeColor=default;endArrow=block;endFill=0;strokeWidth=1;targetPerimeterSpacing=2;endSize=12;" edge="1" parent="WIyWlLk6GJQsqaUBKTNV-1" source="YxHWImLxe_WKOJZ9vS2e-37" target="uvzgt-2RuKVB-h7tKYLs-1">
          <mxGeometry relative="1" as="geometry" />
        </mxCell>
        <mxCell id="YxHWImLxe_WKOJZ9vS2e-37" value="Usuario" style="swimlane;fontStyle=1;align=center;verticalAlign=top;childLayout=stackLayout;horizontal=1;startSize=26;horizontalStack=0;resizeParent=1;resizeParentMax=0;resizeLast=0;collapsible=1;marginBottom=0;whiteSpace=wrap;html=1;" vertex="1" parent="WIyWlLk6GJQsqaUBKTNV-1">
          <mxGeometry x="330" y="310" width="160" height="158" as="geometry" />
        </mxCell>
        <mxCell id="YxHWImLxe_WKOJZ9vS2e-38" value="&lt;div style=&quot;font-size: 13px;&quot;&gt;&lt;font style=&quot;font-size: 13px;&quot;&gt;+ nombre: str&lt;/font&gt;&lt;/div&gt;&lt;div style=&quot;font-size: 13px;&quot;&gt;&lt;font style=&quot;font-size: 13px;&quot;&gt;+ creador: bool&lt;br&gt;&lt;/font&gt;&lt;/div&gt;" style="text;strokeColor=none;fillColor=none;align=left;verticalAlign=top;spacingLeft=4;spacingRight=4;overflow=hidden;rotatable=0;points=[[0,0.5],[1,0.5]];portConstraint=eastwest;whiteSpace=wrap;html=1;" vertex="1" parent="YxHWImLxe_WKOJZ9vS2e-37">
          <mxGeometry y="26" width="160" height="44" as="geometry" />
        </mxCell>
        <mxCell id="YxHWImLxe_WKOJZ9vS2e-39" value="" style="line;strokeWidth=1;fillColor=none;align=left;verticalAlign=middle;spacingTop=-1;spacingLeft=3;spacingRight=3;rotatable=0;labelPosition=right;points=[];portConstraint=eastwest;strokeColor=inherit;" vertex="1" parent="YxHWImLxe_WKOJZ9vS2e-37">
          <mxGeometry y="70" width="160" height="18" as="geometry" />
        </mxCell>
        <mxCell id="YxHWImLxe_WKOJZ9vS2e-40" value="&lt;div&gt;+ crear_partida()&lt;/div&gt;&lt;div&gt;+ unirse_partida()&lt;/div&gt;&lt;div&gt;+ abandonar_lobby()&lt;/div&gt;&lt;div&gt;+ comenzar_partida()&lt;br&gt;&lt;/div&gt;" style="text;strokeColor=none;fillColor=none;align=left;verticalAlign=top;spacingLeft=4;spacingRight=4;overflow=hidden;rotatable=0;points=[[0,0.5],[1,0.5]];portConstraint=eastwest;whiteSpace=wrap;html=1;" vertex="1" parent="YxHWImLxe_WKOJZ9vS2e-37">
          <mxGeometry y="88" width="160" height="70" as="geometry" />
        </mxCell>
        <mxCell id="YxHWImLxe_WKOJZ9vS2e-43" value="1" style="edgeLabel;html=1;align=center;verticalAlign=middle;resizable=0;points=[];" vertex="1" connectable="0" parent="WIyWlLk6GJQsqaUBKTNV-1">
          <mxGeometry x="419.9992813734368" y="286.2864822581496" as="geometry">
            <mxPoint x="17" y="-69" as="offset" />
          </mxGeometry>
        </mxCell>
        <mxCell id="YxHWImLxe_WKOJZ9vS2e-45" value="1" style="text;html=1;align=center;verticalAlign=middle;resizable=0;points=[];autosize=1;strokeColor=none;fillColor=none;" vertex="1" parent="WIyWlLk6GJQsqaUBKTNV-1">
          <mxGeometry x="399" y="448" width="30" height="30" as="geometry" />
        </mxCell>
        <mxCell id="YxHWImLxe_WKOJZ9vS2e-46" value="1" style="text;html=1;align=center;verticalAlign=middle;resizable=0;points=[];autosize=1;strokeColor=none;fillColor=none;" vertex="1" parent="WIyWlLk6GJQsqaUBKTNV-1">
          <mxGeometry x="240" y="530" width="30" height="30" as="geometry" />
        </mxCell>
        <mxCell id="YxHWImLxe_WKOJZ9vS2e-48" value="1" style="text;html=1;align=center;verticalAlign=middle;resizable=0;points=[];autosize=1;strokeColor=none;fillColor=none;" vertex="1" parent="WIyWlLk6GJQsqaUBKTNV-1">
          <mxGeometry x="120" y="418" width="30" height="30" as="geometry" />
        </mxCell>
      </root>
    </mxGraphModel>
  </diagram>
</mxfile>
